<?xml version="1.0" encoding="utf-8"?>
<!-- Generator: Adobe Illustrator 16.0.0, SVG Export Plug-In . SVG Version: 6.00 Build 0)  -->
<!DOCTYPE svg PUBLIC "-//W3C//DTD SVG 1.1//EN" "http://www.w3.org/Graphics/SVG/1.1/DTD/svg11.dtd">
<svg version="1.1" xmlns="http://www.w3.org/2000/svg" xmlns:xlink="http://www.w3.org/1999/xlink" x="0px" y="0px"
	 width="1911.191px" height="1290.129px" viewBox="0 0 1911.191 1290.129" enable-background="new 0 0 1911.191 1290.129"
	 xml:space="preserve">
<g id="Layer_1">
	<g>
		<polygon fill="#5F7475" points="1228.414,986.653 692.142,986.653 813.608,841.185 1111.82,841.185 		"/>
		<rect x="692.142" y="986.59" fill="#3C4242" width="536.272" height="22.583"/>
		
			<rect x="513.688" y="335.708" fill="#EBF6F7" stroke="#3C4242" stroke-width="10" stroke-linecap="round" stroke-linejoin="round" stroke-miterlimit="10" width="893.179" height="522.233"/>
	</g>
	<rect x="568.56" y="430.416" fill="#FFFFFF" width="332.818" height="332.819"/>
	<rect x="1011.801" y="430.416" fill="#FFFFFF" width="332.818" height="332.819"/>
	<g>
		<rect x="624.201" y="553.645" fill="#209CEE" width="37.549" height="142.685"/>
		<rect x="685.531" y="497.321" fill="#FF504D" width="37.549" height="199.008"/>
		<rect x="745.608" y="521.102" fill="#62F1AC" width="37.549" height="175.228"/>
		<rect x="808.189" y="576.173" fill="#FF9900" width="37.549" height="120.156"/>
	</g>
	<g>
		<g>
			<path fill="#FF9900" d="M1174.368,600.668v-87.555c-48.354,0-87.556,39.199-87.556,87.555c0,48.353,39.201,87.554,87.556,87.554
				s87.555-39.201,87.555-87.554H1174.368z"/>
			<polygon fill="#FFFFFF" points="1261.922,600.668 1174.368,513.114 1174.368,600.668 			"/>
		</g>
		<g>
			<path fill="#209CEE" d="M1269.61,592.981c0-48.354-39.201-87.555-87.556-87.555v87.555"/>
		</g>
	</g>
</g>
<g id="Layer_3">
	<g>
		<path fill="#FFD6AE" d="M1344.832,876.293c4.003,2.135,8.28,1.929,9.554-0.459l3.661-6.868c1.274-2.389-0.938-6.053-4.942-8.188
			l0,0c-4.004-2.135-8.28-1.931-9.554,0.457l-3.661,6.868C1338.615,870.49,1340.828,874.157,1344.832,876.293L1344.832,876.293z"/>
		<path fill="#FFD6AE" d="M1336.542,877.752c0.846,0.45,1.892,0.13,2.343-0.713l3.796-7.119c0.449-0.845,0.131-1.891-0.713-2.342
			l0,0c-0.842-0.447-1.89-0.129-2.338,0.715l-3.798,7.118C1335.382,876.254,1335.702,877.302,1336.542,877.752L1336.542,877.752z"/>
		<path fill="#FFD6AE" d="M1347.086,882.466c0.855,0.426,1.893,0.08,2.319-0.774l3.608-7.219c0.426-0.855,0.08-1.895-0.775-2.319
			l0,0c-0.853-0.427-1.893-0.082-2.32,0.772l-3.607,7.22C1345.885,880.999,1346.232,882.039,1347.086,882.466L1347.086,882.466z"/>
		<path fill="#FFD6AE" d="M1345.067,883.821c0.843,0.449,1.891,0.13,2.339-0.712l3.798-7.12c0.449-0.844,0.129-1.891-0.713-2.34l0,0
			c-0.844-0.449-1.891-0.132-2.34,0.71l-3.797,7.122C1343.907,882.325,1344.225,883.373,1345.067,883.821L1345.067,883.821z"/>
		<path fill="#FFD6AE" d="M1341.833,882.531c0.843,0.45,1.891,0.131,2.339-0.711l3.799-7.12c0.449-0.843,0.13-1.891-0.713-2.338l0,0
			c-0.843-0.45-1.89-0.134-2.34,0.711l-3.797,7.121C1340.672,881.035,1340.99,882.083,1341.833,882.531L1341.833,882.531z"/>
		<path fill="#FFD6AE" d="M1338.962,880.566c0.842,0.448,1.89,0.13,2.34-0.712l3.797-7.122c0.45-0.843,0.131-1.889-0.712-2.339l0,0
			c-0.842-0.449-1.89-0.131-2.341,0.712l-3.797,7.121C1337.8,879.068,1338.119,880.116,1338.962,880.566L1338.962,880.566z"/>
		<path fill="#FFD6AE" d="M1566.559,891.45c3.84-2.383,5.737-6.272,4.236-8.691l-4.312-6.951c-1.501-2.42-5.83-2.447-9.669-0.063
			l0,0c-3.839,2.38-5.734,6.272-4.234,8.69l4.312,6.951C1558.392,893.805,1562.722,893.832,1566.559,891.45L1566.559,891.45z"/>
		<path fill="#FFD6AE" d="M1565.246,897.955c0.854-0.531,1.117-1.649,0.588-2.505l-4.473-7.209c-0.531-0.854-1.65-1.117-2.504-0.588
			l0,0c-0.854,0.53-1.116,1.65-0.586,2.505l4.473,7.21C1563.275,898.221,1564.394,898.483,1565.246,897.955L1565.246,897.955z"/>
		<path fill="#FFD6AE" d="M1575.261,893.402c0.853-0.529,1.115-1.648,0.585-2.501l-4.472-7.209c-0.53-0.854-1.65-1.117-2.503-0.588
			l0,0c-0.853,0.529-1.117,1.648-0.588,2.503l4.474,7.21C1573.288,893.673,1574.409,893.934,1575.261,893.402L1575.261,893.402z"/>
		<path fill="#FFD6AE" d="M1572.384,895.664c0.854-0.529,1.115-1.65,0.586-2.504l-4.472-7.211c-0.529-0.854-1.65-1.114-2.504-0.584
			l0,0c-0.853,0.529-1.116,1.648-0.587,2.503l4.475,7.209C1570.411,895.93,1571.534,896.193,1572.384,895.664L1572.384,895.664z"/>
		<path fill="#FFD6AE" d="M1569.083,897.238c0.85-0.528,1.116-1.648,0.586-2.504l-4.475-7.21c-0.53-0.854-1.65-1.114-2.503-0.585
			l0,0c-0.854,0.529-1.117,1.648-0.587,2.505l4.474,7.208C1567.107,897.506,1568.229,897.768,1569.083,897.238L1569.083,897.238z"/>
		<path fill="#FFD6AE" d="M1557.693,897.785c0.997,0.105,1.895-0.619,2-1.617l0.898-8.437c0.108-1.001-0.616-1.896-1.613-2.001l0,0
			c-0.999-0.105-1.896,0.617-2.001,1.616l-0.897,8.438C1555.971,896.779,1556.696,897.678,1557.693,897.785L1557.693,897.785z"/>
		
			<rect x="1518.99" y="758.353" transform="matrix(0.8846 -0.4664 0.4664 0.8846 -207.2007 807.9639)" fill="#74E27F" width="19.239" height="128.412"/>
		
			<rect x="1381.008" y="748.421" transform="matrix(0.8168 0.577 -0.577 0.8168 723.6839 -653.4541)" fill="#74E27F" width="19.239" height="128.412"/>
		<g>
			<path fill="#2D2B28" d="M1444.768,1065.152l-8.363,41.151c0,0-72.196-1.047-61.112-28.52c14.513-8.487,34.164-1.065,34.164-1.065
				l1.097-13.666L1444.768,1065.152z"/>
			<path fill="#353129" d="M1495.83,1067.299l-3.828,41.89c0,0-71.838,7.686-63.815-20.945c13.49-10.184,33.821-5.188,33.821-5.188
				l-0.397-13.707L1495.83,1067.299z"/>
			<rect x="1461.973" y="859.704" fill="#896515" width="35.712" height="211.439"/>
			<polygon fill="#896515" points="1443.666,1072.508 1408.139,1068.688 1428.502,858.34 1464.028,862.16 			"/>
		</g>
		<path fill="#EA9950" d="M1419.51,754.785"/>
		<ellipse fill="#FFD6AE" cx="1472.2" cy="696.19" rx="39.773" ry="47.987"/>
		<ellipse fill="#663D1F" cx="1489.455" cy="697.729" rx="3.459" ry="3.748"/>
		<ellipse fill="#663D1F" cx="1457.749" cy="697.729" rx="3.459" ry="3.748"/>
		<path fill="none" stroke="#663D1F" stroke-width="4" stroke-linecap="round" stroke-miterlimit="10" d="M1471.943,701.477
			c0,0,8.366,17.641-1.266,13.407c-3.423-2.007-2.428-3.404-2.428-3.404"/>
		<path fill="none" stroke="#663D1F" stroke-width="4" stroke-linecap="round" stroke-miterlimit="10" d="M1464.954,690.797
			c-0.04-2.918-3.299-5.239-7.277-5.186c-3.979,0.055-7.173,2.465-7.132,5.383"/>
		<path fill="none" stroke="#663D1F" stroke-width="4" stroke-linecap="round" stroke-miterlimit="10" d="M1496.661,690.797
			c-0.041-2.918-3.3-5.239-7.278-5.186c-3.979,0.055-7.174,2.465-7.133,5.383"/>
		<path fill="#FFD6AE" d="M1507.362,706.178c0,2.549,2.064,4.613,4.611,4.613l0,0c2.548,0,4.612-2.064,4.612-4.613v-10.276
			c0-2.547-2.064-4.611-4.612-4.611l0,0c-2.547,0-4.611,2.064-4.611,4.611V706.178z"/>
		<path fill="#FFD6AE" d="M1427.814,706.178c0,2.549,2.064,4.613,4.612,4.613l0,0c2.547,0,4.611-2.064,4.611-4.613v-10.276
			c0-2.547-2.064-4.611-4.611-4.611l0,0c-2.548,0-4.612,2.064-4.612,4.611V706.178z"/>
		
			<ellipse transform="matrix(-0.9102 -0.4141 0.4141 -0.9102 2568.5889 1874.0219)" fill="#724828" cx="1487.418" cy="658.604" rx="22.539" ry="9.469"/>
		
			<ellipse transform="matrix(-0.8806 0.4739 -0.4739 -0.8806 3076.7275 544.7632)" fill="#724828" cx="1469.724" cy="660.046" rx="14.687" ry="7.516"/>
		
			<ellipse transform="matrix(-0.8806 0.4739 -0.4739 -0.8806 3053.3052 542.4995)" fill="#724828" cx="1458.296" cy="655.976" rx="14.686" ry="7.515"/>
		
			<ellipse transform="matrix(-0.9984 0.0564 -0.0564 -0.9984 2974.9575 1221.3298)" fill="#724828" cx="1470.248" cy="652.636" rx="17.708" ry="7.516"/>
		<path fill="#EA9950" d="M1507.708,761.991"/>
		<path fill="#6ECC64" d="M1507.708,761.991c0,0-32.281-30.265-88.198-7.206c5.477,38.623,6.918,77.246,8.07,112.698
			c0,0,22.547,18.876,70.104,11.669C1502.874,860.418,1507.708,761.991,1507.708,761.991z"/>
		<rect x="1458.133" y="722.791" fill="#FFD6AE" width="17.294" height="31.706"/>
		<path fill="none" stroke="#663D1F" stroke-width="4" stroke-linecap="round" stroke-miterlimit="10" d="M1464.507,725.434
			c0,2.918,3.227,5.285,7.206,5.285c3.98,0,7.206-2.367,7.206-5.285"/>
		<path fill="none" stroke="#6ECC64" stroke-width="7" stroke-miterlimit="10" d="M1452.72,747.502
			c-0.684,4.415,4.789,8.922,12.223,10.074c7.433,1.151,14.01-1.492,14.694-5.905"/>
	</g>
</g>
<g id="Layer_2">
	<g>
		<polygon fill="#A09990" points="1602.297,835.535 1546.722,835.535 1503.143,924.59 1563.602,924.59 		"/>
		<polygon fill="#2B2926" points="1589.174,846.118 1550.378,846.118 1519.956,908.287 1562.162,908.287 		"/>
		<polygon fill="#6B5F54" points="1591.4,785.959 1602.297,835.535 1563.602,924.59 1552.72,875.016 		"/>
		
			<ellipse transform="matrix(0.5646 -0.8254 0.8254 0.5646 -15.8176 1675.083)" fill="#DDD3CA" cx="1579.772" cy="852.534" rx="6.803" ry="5.22"/>
	</g>
	<g>
		<path fill="#2D2B28" d="M1149.911,399.481l1.382,41.839c0,0-73.701,17.273-69.025-12.052c12.724-11.866,34.498-9.68,34.498-9.68
			l-2.167-13.469L1149.911,399.481z"/>
		<path fill="#353129" d="M1170.411,412.666l1.382,41.84c0,0-73.703,17.273-69.025-12.052c12.721-11.866,34.498-9.68,34.498-9.68
			l-2.168-13.469L1170.411,412.666z"/>
		<path fill="#845E20" d="M1101.994,279.176c-7.686,7.819,7.559,125.074,16.678,128.518c9.121,3.442,36.466,2.751,38.102-4.944
			c0.357-1.683-13.035-64.806-16.387-81.717c14.166,2.208,35.457-6.074,47.977-20.998c12.519-14.924-6.393-27.793-6.393-27.793
			S1109.678,271.356,1101.994,279.176z"/>
		<path fill="#896515" d="M1115.631,289.092c-12.147,14.819,7.558,125.075,16.679,128.518c9.119,3.443,39.807-5.165,38.101-4.944
			c-1.706,0.222-13.036-64.806-16.387-81.718c14.165,2.208,69.686,11.195,82.204-3.729c12.52-14.924-5.497-42.366-5.497-42.366
			S1127.78,274.272,1115.631,289.092z"/>
		<path fill="#EA9950" d="M1156.418,161.599"/>
		<g>
			
				<ellipse transform="matrix(-0.9707 0.2402 -0.2402 -0.9707 2365.656 -75.2205)" fill="#FFD6AE" cx="1187.411" cy="106.527" rx="39.565" ry="47.735"/>
			
				<ellipse transform="matrix(-0.9707 0.2403 -0.2403 -0.9707 2380.709 -83.5358)" fill="#663D1F" cx="1195.447" cy="103.357" rx="3.441" ry="3.728"/>
			
				<ellipse transform="matrix(-0.9707 0.2402 -0.2402 -0.9707 2322.207 -61.1743)" fill="#663D1F" cx="1164.832" cy="110.931" rx="3.441" ry="3.727"/>
			<path fill="none" stroke="#663D1F" stroke-width="4" stroke-linecap="round" stroke-miterlimit="10" d="M1179.809,109.639
				c0,0-16.007,22.825-1.435,19.175c5.299-2.002,4.233-4.208,4.233-4.208"/>
			<path fill="none" stroke="#663D1F" stroke-width="4" stroke-linecap="round" stroke-miterlimit="10" d="M1170.132,102.517
				c-0.735-2.808-4.436-4.271-8.266-3.268c-3.828,1.003-6.338,4.093-5.602,6.901"/>
			<path fill="none" stroke="#663D1F" stroke-width="4" stroke-linecap="round" stroke-miterlimit="10" d="M1200.75,94.942
				c-0.736-2.808-4.438-4.271-8.266-3.268c-3.83,1.003-6.338,4.093-5.602,6.901"/>
			<path fill="#FFD6AE" d="M1223.75,107.772c0.608,2.461,3.096,3.96,5.555,3.352l0,0c2.46-0.609,3.96-3.095,3.353-5.554
				l-2.456-9.925c-0.608-2.46-3.094-3.96-5.555-3.352l0,0c-2.46,0.609-3.96,3.096-3.351,5.555L1223.75,107.772z"/>
			<path fill="#FFD6AE" d="M1146.937,126.776c0.608,2.459,3.094,3.96,5.555,3.351l0,0c2.459-0.608,3.961-3.095,3.352-5.555
				l-2.455-9.924c-0.607-2.46-3.096-3.959-5.555-3.351l0,0c-2.461,0.609-3.96,3.095-3.352,5.555L1146.937,126.776z"/>
			
				<ellipse transform="matrix(-0.983 -0.1834 0.1834 -0.983 2353.8108 350.8473)" fill="#A5642F" cx="1193.126" cy="66.598" rx="22.421" ry="9.42"/>
			
				<ellipse transform="matrix(-0.741 0.6715 -0.6715 -0.741 2096.5518 -664.257)" fill="#A5642F" cx="1176.386" cy="72.217" rx="14.609" ry="7.477"/>
			
				<ellipse transform="matrix(-0.741 0.6715 -0.6715 -0.741 2074.8557 -658.2629)" fill="#A5642F" cx="1164.378" cy="71.017" rx="14.61" ry="7.476"/>
			
				<ellipse transform="matrix(-0.9557 0.2945 -0.2945 -0.9557 2317.2617 -219.0455)" fill="#A5642F" cx="1175.122" cy="64.936" rx="17.616" ry="7.476"/>
		</g>
		<g>
			<path fill="#FFD6AE" d="M1298.554,289.482c5.145-2.917,7.703-7.651,5.714-10.576l-5.715-8.409
				c-1.989-2.924-7.769-2.932-12.913-0.015l0,0c-5.144,2.916-7.701,7.651-5.714,10.575l5.717,8.409
				C1287.631,292.393,1293.414,292.397,1298.554,289.482L1298.554,289.482z"/>
			<path fill="#FFD6AE" d="M1296.759,297.383c1.144-0.648,1.501-2.009,0.798-3.042l-5.928-8.722
				c-0.702-1.032-2.195-1.343-3.34-0.695l0,0c-1.143,0.649-1.5,2.009-0.798,3.042l5.928,8.721
				C1294.122,297.721,1295.616,298.032,1296.759,297.383L1296.759,297.383z"/>
			<path fill="#FFD6AE" d="M1310.164,291.797c1.144-0.648,1.502-2.009,0.799-3.042l-5.928-8.721
				c-0.702-1.033-2.196-1.343-3.339-0.695l0,0c-1.142,0.647-1.5,2.009-0.799,3.042l5.928,8.721
				C1307.527,292.134,1309.023,292.445,1310.164,291.797L1310.164,291.797z"/>
			<path fill="#FFD6AE" d="M1306.309,294.558c1.142-0.647,1.499-2.009,0.798-3.042l-5.929-8.721
				c-0.701-1.033-2.195-1.344-3.34-0.695l0,0c-1.142,0.648-1.501,2.01-0.799,3.042l5.928,8.721
				C1303.67,294.896,1305.166,295.206,1306.309,294.558L1306.309,294.558z"/>
			<path fill="#FFD6AE" d="M1301.885,296.491c1.144-0.647,1.504-2.01,0.802-3.042l-5.929-8.721
				c-0.702-1.033-2.198-1.343-3.341-0.696l0,0c-1.144,0.648-1.502,2.01-0.799,3.043l5.928,8.721
				C1299.249,296.828,1300.745,297.138,1301.885,296.491L1301.885,296.491z"/>
			<path fill="#FFD6AE" d="M1286.672,297.227c1.332,0.123,2.532-0.762,2.681-1.975l1.255-10.247
				c0.148-1.213-0.812-2.294-2.143-2.416l0,0c-1.334-0.122-2.534,0.76-2.684,1.973l-1.254,10.245
				C1284.378,296.02,1285.339,297.104,1286.672,297.227L1286.672,297.227z"/>
		</g>
		<path fill="#EA9950" d="M1244.154,168.767"/>
		<g>
			<path fill="#FFD6AE" d="M1063.035,201.875c-1.096,5.06,0.66,9.916,3.927,10.847l9.39,2.674c3.265,0.931,6.803-2.418,7.9-7.479
				l0,0c1.097-5.06-0.661-9.917-3.926-10.848l-9.39-2.674C1067.669,193.465,1064.133,196.814,1063.035,201.875L1063.035,201.875z"/>
			<g>
				<path fill="#282625" d="M1076.419,205.282c1.258,1.424,1.121,3.6-0.304,4.856l0,0c-1.425,1.257-3.599,1.121-4.855-0.304
					l-16.3-18.476c-1.258-1.425-1.121-3.599,0.303-4.856l0,0c1.426-1.257,3.6-1.121,4.857,0.305L1076.419,205.282z"/>
				<circle fill="#FFFFFF" stroke="#77716D" stroke-width="6" stroke-miterlimit="10" cx="1052.832" cy="183.6" r="13.272"/>
			</g>
			<path fill="#FFD6AE" stroke="#FDFFFF" stroke-miterlimit="10" d="M1060.593,201.229c0.067,1.149,1.092,2.085,2.291,2.093
				l10.125,0.063c1.199,0.008,2.115-0.917,2.049-2.066l0,0c-0.066-1.149-1.09-2.085-2.289-2.093l-10.125-0.064
				C1061.445,199.155,1060.529,200.079,1060.593,201.229L1060.593,201.229z"/>
			<path fill="#FFD6AE" stroke="#FDFFFF" stroke-miterlimit="10" d="M1060.751,213.923c0.066,1.148,1.09,2.085,2.29,2.093
				l10.126,0.064c1.197,0.007,2.115-0.918,2.048-2.066l0,0c-0.066-1.148-1.09-2.087-2.29-2.094l-10.125-0.064
				C1061.602,211.849,1060.685,212.775,1060.751,213.923L1060.751,213.923z"/>
			<path fill="#FFD6AE" stroke="#FFFFFF" stroke-miterlimit="10" d="M1060.03,209.761c0.065,1.148,1.09,2.085,2.29,2.093
				l10.125,0.063c1.199,0.007,2.115-0.918,2.049-2.066l0,0c-0.066-1.149-1.09-2.087-2.289-2.094l-10.125-0.064
				C1060.88,207.687,1059.962,208.612,1060.03,209.761L1060.03,209.761z"/>
			<path fill="#FFD6AE" stroke="#FDFFFF" stroke-miterlimit="10" d="M1060.271,205.603c0.066,1.148,1.09,2.087,2.289,2.094
				l10.126,0.063c1.199,0.008,2.115-0.919,2.05-2.067l0,0c-0.066-1.148-1.091-2.086-2.291-2.094l-10.125-0.063
				C1061.122,203.528,1060.205,204.454,1060.271,205.603L1060.271,205.603z"/>
			<path fill="#FFD6AE" stroke="#FFFFFF" stroke-miterlimit="10" d="M1068.032,192.863c-0.899,0.686-1.013,2.012-0.253,2.961
				l6.418,8.027c0.76,0.951,2.104,1.164,3.004,0.479l0,0c0.9-0.688,1.016-2.012,0.256-2.962l-6.418-8.026
				C1070.28,192.392,1068.933,192.177,1068.032,192.863L1068.032,192.863z"/>
		</g>
		<g>
			
				<rect x="1250.438" y="167.49" transform="matrix(0.876 -0.4823 0.4823 0.876 47.5033 636.8048)" fill="#86A6CE" width="23.511" height="117.057"/>
			<g>
				
					<rect x="1136.844" y="162.253" transform="matrix(0.8457 0.5337 -0.5337 0.8457 281.9666 -582.3582)" fill="#86A6CE" width="22.178" height="68.228"/>
				<path fill="#86A6CE" d="M1139.106,231.134l-60.585-15.011l4.983-17.478c0,0,17.013,4.265,42.835,11.161"/>
			</g>
			<path fill="#7699CD" d="M1244.154,168.767c0,0-32.112-30.105-87.735-7.168c5.448,38.42,6.882,76.84,8.028,112.105
				c0,0,20.93,20.07,68.238,12.902C1237.846,267.97,1244.154,168.767,1244.154,168.767z"/>
			<g>
				
					<rect x="1184.846" y="134.431" transform="matrix(0.9968 -0.0798 0.0798 0.9968 -8.1809 95.7371)" fill="#FFD6AE" width="17.202" height="31.54"/>
				<path fill="none" stroke="#663D1F" stroke-width="4" stroke-linecap="round" stroke-miterlimit="10" d="M1182.491,137.431
					c0.231,2.894,3.618,4.983,7.565,4.667c3.945-0.315,6.957-2.918,6.725-5.812"/>
				<path fill="none" stroke="#7699CD" stroke-width="7" stroke-miterlimit="10" d="M1182.027,160.923
					c0.309,3.841,5.804,6.534,12.275,6.016c6.472-0.519,11.469-4.053,11.16-7.893"/>
			</g>
		</g>
		<line fill="#86A6CE" x1="1133.966" y1="213.099" x2="1154.679" y2="232.898"/>
	</g>
</g>
<g id="Layer_4">
	
		<rect x="413.292" y="905.464" transform="matrix(-0.9952 0.0979 -0.0979 -0.9952 947.9007 1991.9636)" fill="#FFD6AE" width="23.623" height="227.525"/>
	<path fill="#724828" d="M362.183,733.154c0,0-18.3,44.227-3.206,62.222c15.094,17.995,16.083,9.893,16.083,9.893
		s-1.536,8.998,8.54,7.805c5.328-15.958,10.949-18.172,10.949-18.172s-8.86,16.487,4.031,18.942
		c12.89,2.457,18.713-3.666,18.713-3.666l0.776-15.066c0,0-0.256,14.679,15.203,15.891c15.458,1.21,19.082-10.815,19.082-10.815
		s0.072,8.32,9.487,0.489c9.416-7.83,11.137-21.809,11.137-21.809s4.986-38.461-16.502-48.973
		C434.989,719.382,362.183,733.154,362.183,733.154z"/>
	<path fill="#FFD6AE" d="M549.22,827.24c2.656,3.678,3.03,7.944,0.836,9.528l-6.31,4.557c-2.194,1.585-6.124-0.112-8.781-3.791l0,0
		c-2.656-3.678-3.033-7.941-0.839-9.526l6.31-4.557C542.629,821.867,546.562,823.562,549.22,827.24L549.22,827.24z"/>
	
		<line fill="none" stroke="#34352F" stroke-width="3" stroke-linecap="round" stroke-miterlimit="10" x1="541.573" y1="831.536" x2="615.921" y2="725.939"/>
	<path fill="#FFD6AE" stroke="#FFFFFF" stroke-miterlimit="10" d="M552.984,822.201c0.242,0.927-0.312,1.87-1.237,2.111l-7.806,2.04
		c-0.926,0.24-1.868-0.313-2.112-1.238l0,0c-0.24-0.922,0.313-1.868,1.239-2.108l7.804-2.041
		C551.797,820.725,552.743,821.278,552.984,822.201L552.984,822.201z"/>
	<path fill="#FFD6AE" stroke="#FFFFFF" stroke-miterlimit="10" d="M540.545,818.328c0.92-0.255,1.872,0.281,2.129,1.202l2.168,7.772
		c0.255,0.922-0.281,1.876-1.203,2.129l0,0c-0.918,0.259-1.873-0.278-2.13-1.199l-2.168-7.774
		C539.086,819.539,539.625,818.585,540.545,818.328L540.545,818.328z"/>
	<path fill="#FFD6AE" stroke="#FFFFFF" stroke-miterlimit="10" d="M554.937,831.757c0.318,0.9-0.156,1.888-1.056,2.204l-7.609,2.686
		c-0.901,0.317-1.888-0.156-2.205-1.058l0,0c-0.318-0.9,0.153-1.887,1.053-2.204l7.611-2.686
		C553.632,830.385,554.621,830.855,554.937,831.757L554.937,831.757z"/>
	<path fill="#FFD6AE" stroke="#FFFFFF" stroke-miterlimit="10" d="M555.337,828.993c0.234,0.927-0.327,1.869-1.252,2.102
		l-7.822,1.984c-0.926,0.232-1.866-0.327-2.099-1.254l0,0c-0.235-0.926,0.322-1.866,1.25-2.1l7.823-1.983
		C554.162,827.509,555.104,828.066,555.337,828.993L555.337,828.993z"/>
	<path fill="#FFD6AE" stroke="#FFFFFF" stroke-miterlimit="10" d="M554.582,825.069c0.298,0.907-0.196,1.885-1.102,2.186
		l-7.666,2.521c-0.908,0.301-1.885-0.194-2.183-1.101l0,0c-0.299-0.907,0.194-1.885,1.102-2.185l7.665-2.522
		C553.305,823.67,554.282,824.163,554.582,825.069L554.582,825.069z"/>
	<path fill="#FFD6AE" d="M306.443,932.078c-3.712-2.577-5.407-6.56-3.784-8.898l4.665-6.721c1.623-2.339,5.948-2.144,9.659,0.435
		l0,0c3.711,2.575,5.404,6.56,3.782,8.896l-4.663,6.721C314.478,934.849,310.152,934.653,306.443,932.078L306.443,932.078z"/>
	<path fill="#FFD6AE" d="M307.42,938.642c-0.825-0.575-1.031-1.705-0.458-2.532l4.837-6.969c0.575-0.826,1.706-1.031,2.531-0.458
		l0,0c0.825,0.573,1.03,1.705,0.456,2.531l-4.837,6.97C309.374,939.009,308.243,939.213,307.42,938.642L307.42,938.642z"/>
	<path fill="#FFD6AE" d="M297.651,933.58c-0.824-0.574-1.028-1.704-0.455-2.529l4.836-6.969c0.574-0.825,1.706-1.031,2.53-0.458l0,0
		c0.824,0.572,1.031,1.704,0.458,2.53l-4.839,6.97C299.609,933.951,298.476,934.154,297.651,933.58L297.651,933.58z"/>
	<path fill="#FFD6AE" d="M300.409,935.986c-0.827-0.573-1.029-1.706-0.457-2.531l4.836-6.972c0.573-0.824,1.706-1.027,2.531-0.454
		l0,0c0.824,0.572,1.03,1.704,0.457,2.53l-4.84,6.97C302.366,936.353,301.23,936.559,300.409,935.986L300.409,935.986z"/>
	<path fill="#FFD6AE" d="M303.624,937.729c-0.822-0.572-1.03-1.705-0.457-2.531l4.839-6.97c0.574-0.825,1.706-1.028,2.53-0.456l0,0
		c0.825,0.573,1.031,1.703,0.457,2.532l-4.838,6.968C305.584,938.097,304.45,938.301,303.624,937.729L303.624,937.729z"/>
	<path fill="#FFD6AE" d="M314.971,938.86c-1.001,0.054-1.86-0.716-1.914-1.718l-0.463-8.473c-0.057-1.004,0.713-1.86,1.714-1.914
		l0,0c1.003-0.055,1.861,0.714,1.916,1.717l0.461,8.474C316.743,937.944,315.972,938.805,314.971,938.86L314.971,938.86z"/>
	
		<rect x="338.268" y="801.024" transform="matrix(-0.8594 -0.5114 0.5114 -0.8594 204.4098 1786.676)" fill="#EF993A" width="19.239" height="128.412"/>
	<polygon fill="#EF993A" points="483.2,888.981 495.783,875.431 460.116,803.149 447.533,816.7 	"/>
	
		<rect x="382.976" y="904.995" transform="matrix(-0.9987 -0.0515 0.0515 -0.9987 736.5336 2059.8311)" fill="#FFD6AE" width="23.624" height="230.875"/>
	<path fill="#EA9950" d="M460.329,803.16"/>
	
		<ellipse transform="matrix(0.9987 0.0515 -0.0515 0.9987 38.7266 -20.1541)" fill="#FFD6AE" cx="410.725" cy="741.932" rx="39.773" ry="47.987"/>
	
		<ellipse transform="matrix(0.9987 0.0514 -0.0514 0.9987 38.6819 -19.3356)" fill="#663D1F" cx="395.411" cy="742.683" rx="3.459" ry="3.748"/>
	
		<ellipse transform="matrix(0.9987 0.0514 -0.0514 0.9987 38.8104 -20.9617)" fill="#663D1F" cx="427.075" cy="744.314" rx="3.459" ry="3.748"/>
	<path fill="none" stroke="#663D1F" stroke-width="2" stroke-linecap="round" stroke-miterlimit="10" d="M410.709,747.225
		c0,0-9.263,17.187,0.574,13.455c3.521-1.828,2.6-3.276,2.6-3.276"/>
	<path fill="none" stroke="#663D1F" stroke-width="2" stroke-linecap="round" stroke-miterlimit="10" d="M420.236,737.021
		c0.19-2.912,3.564-5.062,7.535-4.805c3.97,0.26,7.036,2.831,6.845,5.743"/>
	<path fill="none" stroke="#663D1F" stroke-width="2" stroke-linecap="round" stroke-miterlimit="10" d="M388.571,735.39
		c0.191-2.912,3.565-5.062,7.536-4.805c3.971,0.261,7.038,2.831,6.846,5.743"/>
	<path fill="#FFD6AE" d="M375.095,750.097c-0.131,2.545-2.299,4.501-4.843,4.369l0,0c-2.544-0.13-4.5-2.298-4.368-4.844
		l0.528-10.263c0.131-2.544,2.299-4.499,4.844-4.368l0,0c2.543,0.131,4.499,2.299,4.368,4.843L375.095,750.097z"/>
	<path fill="#FFD6AE" d="M454.538,754.189c-0.131,2.546-2.299,4.501-4.843,4.371l0,0c-2.544-0.132-4.499-2.3-4.368-4.846
		l0.529-10.263c0.131-2.543,2.299-4.499,4.842-4.367l0,0c2.544,0.131,4.5,2.299,4.369,4.842L454.538,754.189z"/>
	
		<ellipse transform="matrix(0.855 0.5186 -0.5186 0.855 428.339 -120.1469)" fill="#724828" cx="429.049" cy="705.998" rx="22.733" ry="7.515"/>
	
		<ellipse transform="matrix(0.8118 0.5839 -0.5839 0.8118 490.7451 -111.7025)" fill="#724828" cx="418.661" cy="705.463" rx="17.709" ry="7.516"/>
	<path fill="#EA9950" d="M371.877,805.818"/>
	<path fill="#FF9900" d="M371.08,803.831c0,0,33.796-28.563,88.453-2.658c-7.457,38.291-9.813,77.562-12.788,112.907
		c0,0-23.153,6.024-70.277-3.62C372.25,891.483,371.08,803.831,371.08,803.831z"/>
	
		<rect x="405.082" y="768.75" transform="matrix(-0.9987 -0.0514 0.0514 -0.9987 786.3705 1598.0977)" fill="#FFD6AE" width="17.294" height="40.381"/>
	<path fill="none" stroke="#663D1F" stroke-width="2" stroke-linecap="round" stroke-miterlimit="10" d="M416.976,770.097
		c-0.15,2.914-3.495,5.112-7.469,4.907c-3.975-0.205-7.074-2.734-6.924-5.648L416.976,770.097z"/>
	<path fill="none" stroke="#FF9900" stroke-width="8" stroke-miterlimit="10" d="M427.538,794.178
		c0.455,4.444-6.151,14.191-12.876,20.812c-6.933-5.492-13.764-13.591-14.22-18.032"/>
	<polygon fill="#EF993A" points="547.66,840.217 531.96,830.445 475.497,873.37 483.495,888.996 	"/>
	<path fill="none" stroke="#663D1F" stroke-width="2" stroke-linecap="round" stroke-miterlimit="10" d="M389.289,738.977
		c-0.105,2.039,1.578,3.78,3.763,3.893"/>
	<path fill="none" stroke="#663D1F" stroke-width="2" stroke-linecap="round" stroke-miterlimit="10" d="M430.024,744.604
		c1.998,0.413,3.976-0.984,4.419-3.128"/>
	
		<ellipse transform="matrix(-0.7797 0.6261 -0.6261 -0.7797 1153.676 1000.0785)" fill="#724828" cx="400.92" cy="702.976" rx="17.708" ry="7.517"/>
	
		<ellipse transform="matrix(-0.7797 0.6261 -0.6261 -0.7797 1134.3081 1012.5869)" fill="#724828" cx="389.027" cy="705.833" rx="17.708" ry="7.517"/>
	<path fill="#724828" d="M392.053,697.844c0.018-4.148,7.963-7.479,17.741-7.436c9.781,0.045,17.695,3.444,17.675,7.595
		c-0.018,4.153-7.961,7.481-17.741,7.438C399.947,705.396,392.033,701.996,392.053,697.844z"/>
	
		<ellipse transform="matrix(-0.4209 0.9071 -0.9071 -0.4209 1186.7395 694.4158)" fill="#724828" cx="371.719" cy="726.004" rx="17.708" ry="7.517"/>
	<path fill="#724828" d="M439.745,711.156c3.627-2.018,10.422,3.277,15.174,11.823c4.75,8.551,5.663,17.115,2.035,19.132
		c-3.63,2.018-10.421-3.277-15.174-11.825C437.028,721.737,436.116,713.172,439.745,711.156z"/>
	<path fill="none" stroke="#663D1F" stroke-width="2" stroke-linecap="round" stroke-miterlimit="10" d="M364.265,742.067"/>
	<polygon fill="#6161F7" points="456.185,1024.702 356.868,1019.585 376.467,910.46 446.744,914.08 	"/>
	<path fill="#353129" d="M377.883,1118.965l-1.406,27.297c0,0,3.675-0.143,7.357-5.128c1.36,0.41,0.987,4.993,3.089,4.831
		c10.388-0.799,43.667,7.592,47.389-6.46c-10.358-6.151-33.316-10.005-33.316-10.005l-10.307,1.473L377.883,1118.965z"/>
	<path fill="#353129" d="M422.58,1117.918l3.835,27.062c0,0,3.579-0.84,6.242-6.438c1.414,0.143,1.922,4.711,3.954,4.151
		c10.044-2.769,44.313-0.89,45.282-15.392c-11.342-4.061-34.614-3.458-34.614-3.458l-9.835,3.413L422.58,1117.918z"/>
</g>
</svg>
